<svg fill="none" xmlns="http://www.w3.org/2000/svg" viewBox="0 0 45 46">
  <path d="M3.847 10.91a22.31 22.31 0 0 1 1.68-2.266C13.4-.686 27.345-1.866 36.675 6.007a22.009 22.009 0 0 1 6.136 8.35A22.206 22.206 0 0 1 44.424 25c-.27 2.85-2.765 5.201-5.474 4.278a8.423 8.423 0 0 1-2.72-1.54c-.501-.424-.636-1.119-.489-1.76.484-2.11.457-4.303-.065-6.389h-.003a13.662 13.662 0 0 0-1.082-2.897 13.622 13.622 0 0 0-3.362-4.233c-4.377-3.693-10.396-4.163-15.171-1.654-.835.44-1.863.35-2.662-.152-2.874-1.806-6.701-1.75-9.505.299-.028.02-.064-.013-.045-.042ZM.413 20.799c.27-2.85 2.766-5.2 5.474-4.278.968.33 1.891.842 2.72 1.54.502.425.636 1.119.49 1.76a13.723 13.723 0 0 0 .064 6.39l.003-.001a13.659 13.659 0 0 0 1.082 2.898 13.617 13.617 0 0 0 3.363 4.232c4.376 3.693 10.396 4.163 15.17 1.654.836-.439 1.863-.35 2.662.153 2.61 1.638 6.004 1.743 8.706.216.194-.11.44.132.31.314-.358.504-.74.997-1.145 1.478-7.873 9.33-21.819 10.51-31.148 2.637a22.01 22.01 0 0 1-6.136-8.35A22.205 22.205 0 0 1 .413 20.8Z" fill="#ED8936"/>
</svg>
