<svg fill="none" xmlns="http://www.w3.org/2000/svg" viewBox="0 0 136 56">
  <path fill-rule="evenodd" clip-rule="evenodd" d="M74.02 47.438a.2.2 0 0 1-.2.2H60.988a2 2 0 0 1-2-2v-4.735c0-.11.09-.2.2-.2h3.054a.2.2 0 0 0 .2-.2v-9.314a.2.2 0 0 0-.2-.2h-1.254a2 2 0 0 1-2-2V24.14c0-.11.09-.2.2-.2h2.998a.2.2 0 0 0 .2-.2v-6.61c0-2.245.36-4.28 1.114-6.081l.005-.012.005-.01c.78-1.764 1.837-3.266 3.18-4.486 1.34-1.254 2.923-2.187 4.733-2.805 1.822-.647 3.755-1.007 5.793-1.087l1.072-.042a.2.2 0 0 1 .207.2v5.546c0 .651-.508 1.19-1.158 1.229-1.171.068-2.237.291-3.204.658l-.011.004-.011.004a6.965 6.965 0 0 0-2.362 1.395 6.408 6.408 0 0 0-1.615 2.334c-.38.917-.586 2.017-.586 3.323v6.44c0 .11.09.2.2.2h4.482a2 2 0 0 1 2 2v4.85a.2.2 0 0 1-.2.2h-6.282a.2.2 0 0 0-.2.2v9.313c0 .11.09.2.2.2h2.274a2 2 0 0 1 2 2v4.735Zm29.474-1.864c0-.175-.211-.267-.343-.153a11.62 11.62 0 0 1-1.27.945l-.006.004c-1.866 1.187-3.947 1.778-6.21 1.778-2.446 0-4.528-.647-6.097-2.077-1.55-1.413-2.352-3.263-2.44-5.447v-9.548a.2.2 0 0 0-.2-.2H85.39a2 2 0 0 1-2-2V24.14c0-.11.09-.2.2-.2h8.7a2 2 0 0 1 2 2v12.434c.063.737.316 1.352.76 1.886.383.389 1.07.713 2.289.782a6.307 6.307 0 0 0 2.294-.425l.008-.003.008-.003a6.295 6.295 0 0 0 1.993-1.183 5.866 5.866 0 0 0 1.359-1.782c.325-.65.493-1.366.493-2.168v-4.402a.2.2 0 0 0-.2-.2h-1.538a2 2 0 0 1-2-2V24.14c0-.11.09-.2.2-.2h8.7a2 2 0 0 1 2 2v15.072c0 .11.09.2.2.2h1.311a2 2 0 0 1 2 2v4.226a.2.2 0 0 1-.2.2h-8.473a2 2 0 0 1-2-2v-.064Zm32.889 1.864a.2.2 0 0 1-.2.2H123.35a2 2 0 0 1-2-2v-4.735a.2.2 0 0 1 .2-.2h3.903a.2.2 0 0 0 .2-.2V9.84a.2.2 0 0 0-.2-.2h-1.537a2 2 0 0 1-2-2V2.904a.2.2 0 0 1 .2-.2h8.7a2 2 0 0 1 2 2v35.799c0 .11.089.2.2.2h1.367a2 2 0 0 1 2 2v4.735Z" fill="#2D3748"/>
  <path d="M4.576 12.159a22.324 22.324 0 0 1 1.68-2.266C14.128.563 28.073-.617 37.402 7.255a22.01 22.01 0 0 1 6.136 8.35 22.204 22.204 0 0 1 1.615 10.644c-.27 2.849-2.766 5.2-5.474 4.277a8.42 8.42 0 0 1-2.72-1.54c-.502-.424-.636-1.119-.49-1.76.485-2.11.457-4.303-.064-6.389h-.003a13.665 13.665 0 0 0-1.082-2.897 13.617 13.617 0 0 0-3.362-4.233c-4.377-3.693-10.396-4.162-15.171-1.653-.836.438-1.863.349-2.662-.153-2.874-1.805-6.701-1.749-9.505.3-.028.02-.064-.014-.045-.042ZM1.142 22.047c.27-2.849 2.766-5.2 5.474-4.277a8.42 8.42 0 0 1 2.72 1.54c.502.424.636 1.119.49 1.76a13.724 13.724 0 0 0 .064 6.389h.003a13.66 13.66 0 0 0 1.082 2.897 13.62 13.62 0 0 0 3.362 4.233c4.377 3.693 10.396 4.162 15.171 1.653.836-.438 1.863-.349 2.662.153 2.61 1.639 6.004 1.743 8.706.216.194-.11.44.132.31.315-.358.503-.74.997-1.145 1.477-7.873 9.33-21.819 10.51-31.148 2.638a22.01 22.01 0 0 1-6.136-8.35 22.205 22.205 0 0 1-1.615-10.644Z" fill="#ED8936"/>
</svg>
